<svg width="128" height="128" xmlns="http://www.w3.org/2000/svg" preserveAspectRatio="xMidYMid meet">

 <g>
  <title>background</title>
  <rect fill="none" id="canvas_background" height="130" width="130" y="-1" x="-1"/>
 </g>
 <g>
  <title>Layer 1</title>
  <g id="svg_9" fill="#f27a38">
   <path id="svg_10" d="m67.56,127.72c0,-0.09 0.26,-0.37 0.57,-0.65c0.64,-0.58 0.67,-0.7 0.28,-1.19c-0.36,-0.47 -0.37,-1.49 -0.03,-2.06c0.26,-0.41 0.7,-0.7 1.68,-1.08c0.4,-0.16 0.44,-0.23 0.33,-0.53c-0.17,-0.44 -0.17,-1.31 0,-1.31c0.07,0 0.17,-0.13 0.23,-0.27c0.13,-0.41 0.71,-0.73 1.51,-0.82l0.73,-0.09l-0.1,-0.48c-0.13,-0.74 0.28,-2.01 0.85,-2.52c0.75,-0.71 0.91,-0.81 1.21,-0.77c0.14,0.03 0.26,-0.01 0.24,-0.1c-0.01,-0.07 -0.07,-0.13 -0.13,-0.11c-0.18,0.07 -0.95,-0.95 -1.1,-1.45c-0.2,-0.74 0.14,-1.79 0.85,-2.56l0.55,-0.6l-0.38,-0.09c-0.5,-0.1 -1.29,-0.87 -1.61,-1.55c-0.24,-0.54 -0.28,-1.76 -0.09,-2.38c0.11,-0.33 0.1,-0.33 -0.6,-0.23c-0.87,0.11 -1.49,-0.13 -2.2,-0.85c-0.74,-0.75 -0.84,-1.72 -0.31,-2.94c0.09,-0.2 0.03,-0.26 -0.23,-0.26c-0.67,-0.01 -2.45,-0.55 -2.76,-0.85c-0.53,-0.5 -0.7,-1.49 -0.44,-2.47l0.2,-0.81l-0.65,0.03c-2.16,0.09 -3.81,-2.23 -2.89,-4.04l0.27,-0.53l-0.54,0c-1.19,0 -1.49,-1.54 -0.46,-2.36l0.38,-0.31l-0.5,-1.01c-0.26,-0.55 -0.53,-1.01 -0.58,-1.01c-0.11,0 -1,-2.2 -0.95,-2.38c0.04,-0.16 -0.3,-1.76 -0.46,-2.1c-0.06,-0.16 -0.16,-0.38 -0.18,-0.53c-0.11,-0.34 -1.75,-1.66 -2.39,-1.92c-0.31,-0.11 -0.55,-0.26 -0.55,-0.31c0,-0.23 -1.56,-0.55 -2.7,-0.58l-1.22,-0.01l-0.16,0.63c-0.3,1.08 -1.39,2.08 -2.36,2.16c-0.26,0.03 -0.54,0.04 -0.64,0.06c-0.11,0.01 -0.06,0.2 0.18,0.55c0.27,0.41 0.38,0.81 0.44,1.64c0.07,0.78 0.06,1.1 -0.07,1.1c-0.09,0 -0.16,0.1 -0.16,0.21c0,0.26 -1.29,1.64 -1.54,1.64c-0.24,0 -0.21,0.24 0.06,0.34c0.11,0.04 0.34,0.37 0.5,0.74c0.37,0.84 0.27,1.48 -0.46,2.86c-0.31,0.58 -0.55,1.07 -0.55,1.1c0,0.03 0.26,0.11 0.55,0.2c0.63,0.2 1.58,1.15 1.58,1.59c0,0.16 0.07,0.28 0.16,0.28c0.27,0 0.09,1.59 -0.23,1.96c-0.16,0.17 -0.28,0.38 -0.28,0.47c0,0.09 -0.16,0.26 -0.34,0.4l-0.34,0.26l0.53,0.1c0.28,0.06 0.51,0.16 0.51,0.21c0,0.07 0.18,0.2 0.41,0.3c0.53,0.21 1.39,1.14 1.66,1.78c0.26,0.63 0.26,1.46 -0.01,2.1c-0.36,0.85 -0.3,1 0.36,0.88c1.48,-0.26 3.1,0.75 3.24,2.01c0.09,0.82 -0.04,1.27 -0.5,1.68c-0.28,0.27 -0.33,0.37 -0.17,0.41c0.11,0.04 0.61,0.21 1.12,0.37c0.51,0.17 1.01,0.31 1.11,0.33c0.31,0.03 1.24,1.02 1.29,1.39c0.14,0.94 0.06,1.41 -0.33,1.98c-0.23,0.33 -0.57,0.63 -0.74,0.67c-0.41,0.11 -0.43,0.21 -0.04,0.46c0.37,0.23 0.7,1.01 0.7,1.65c0,1.48 -1.29,2.55 -2.55,2.1c-0.36,-0.13 -0.44,-0.11 -0.44,0.06c0,0.1 -0.06,0.2 -0.14,0.2c-0.07,0 -0.14,0.1 -0.14,0.21c0,0.13 -0.17,0.28 -0.38,0.37c-0.23,0.09 -0.57,0.26 -0.78,0.36c-0.33,0.17 -0.4,0.17 -0.6,-0.03c-0.13,-0.11 -0.24,-0.33 -0.26,-0.46c0,-0.13 -0.03,-0.3 -0.04,-0.38c0,-0.07 -0.07,-0.46 -0.13,-0.85c-0.06,-0.38 -0.17,-0.78 -0.23,-0.85c-0.07,-0.09 -0.16,-0.44 -0.2,-0.78c-0.11,-0.98 -0.54,-2.08 -1.35,-3.47c-0.4,-0.7 -0.73,-1.28 -0.73,-1.31c0,-0.03 -0.11,-0.17 -0.24,-0.31c-0.14,-0.14 -0.58,-0.64 -1,-1.11c-0.4,-0.46 -1.82,-1.95 -3.16,-3.31c-1.34,-1.35 -2.4,-2.5 -2.36,-2.56c0.03,-0.06 -0.21,-0.37 -0.55,-0.7c-0.34,-0.33 -0.77,-0.84 -0.97,-1.12c-1.14,-1.74 -1.45,-2.18 -1.54,-2.18c-0.09,0 -0.33,-0.43 -0.41,-0.74c-0.07,-0.2 -1.29,-2.33 -1.51,-2.6c-0.13,-0.16 -0.33,-0.64 -0.46,-1.07c-0.11,-0.43 -0.33,-0.97 -0.47,-1.21c-0.24,-0.4 -0.73,-1.86 -0.78,-2.35c-0.09,-0.8 -0.43,-2.38 -0.54,-2.53c-0.18,-0.23 -0.26,-5.3 -0.1,-6.31c0.33,-2.06 1.31,-5.53 1.65,-5.82c0.11,-0.09 0.2,-0.26 0.2,-0.37c0,-0.28 0.68,-1.61 1.08,-2.08c0.55,-0.67 0.88,-1.98 0.9,-3.73c0.01,-1.38 -0.03,-1.65 -0.33,-2.28c-0.61,-1.29 -1.15,-1.59 -1.76,-0.98c-0.11,0.11 -0.48,0.2 -0.9,0.2c-0.58,0 -0.78,-0.07 -1.02,-0.34l-0.31,-0.34l-0.64,0.46c-1.21,0.88 -2.23,1.02 -3.2,0.44c-0.34,-0.18 -0.64,-0.48 -0.68,-0.64c-0.1,-0.38 -0.28,-0.36 -0.55,0.11c-0.61,1.02 -2.32,2.02 -3.47,2.02c-0.91,0 -2.53,-0.77 -3.17,-1.49c-0.36,-0.41 -0.44,-0.46 -0.5,-0.24c-0.13,0.4 -1.24,1.42 -1.79,1.64c-0.55,0.23 -2.9,0.28 -3.29,0.09c-0.2,-0.1 -0.28,0.03 -0.48,0.7c-0.34,1.08 -1.02,2.4 -1.32,2.53c-0.82,0.36 -2.02,0.43 -2.56,0.14l-0.41,-0.21l-0.1,0.8c-0.17,1.41 -1.51,3.2 -2.82,3.77c-0.38,0.16 -0.68,0.3 -0.68,0.31c0,0 0.09,0.47 0.2,1.02c0.31,1.69 0.01,2.89 -1.21,4.72c-0.23,0.34 -0.41,0.67 -0.41,0.74c0,0.07 0.2,0.33 0.43,0.57c0.24,0.24 0.6,0.77 0.8,1.18c0.33,0.64 0.38,0.92 0.4,2.16c0,0.78 -0.03,1.59 -0.09,1.79c-0.1,0.33 -0.04,0.43 0.5,0.77c0.91,0.61 1.92,1.74 2.09,2.32c0.2,0.75 0.17,1.01 -0.18,1.75c-0.28,0.57 -0.3,0.71 -0.14,0.92c0.11,0.14 0.26,0.5 0.34,0.78c0.13,0.41 0.11,0.6 -0.1,1c-0.13,0.27 -0.26,0.68 -0.26,0.91c-0.01,0.37 -0.07,0.43 -0.47,0.47c-0.26,0.03 -0.47,-0.01 -0.47,-0.1c0,-0.07 -0.18,-0.17 -0.41,-0.23c-0.23,-0.04 -0.78,-0.31 -1.22,-0.58c-0.46,-0.27 -0.87,-0.48 -0.92,-0.48c-0.14,0 -2.87,-2.77 -3.04,-3.1c-0.07,-0.13 -0.4,-0.65 -0.74,-1.17c-1.51,-2.3 -2.86,-5.21 -3.13,-6.71c-0.04,-0.3 -0.14,-0.54 -0.2,-0.54c-0.11,0 -0.26,-0.67 -0.36,-1.55c-0.18,-1.69 -0.27,-2.25 -0.4,-2.4c-0.13,-0.17 -0.1,-1.19 0.13,-4.65c0.06,-0.75 0.28,-1.95 0.48,-2.42c0.06,-0.16 0.18,-0.57 0.28,-0.91c0.1,-0.36 0.57,-1.38 1.04,-2.28c0.48,-0.91 0.88,-1.75 0.91,-1.86c0.01,-0.11 0.11,-0.27 0.21,-0.36c0.23,-0.18 1.32,-1.79 1.32,-1.95c0,-0.16 1.58,-1.91 2.8,-3.1c1.62,-1.59 2.45,-2.3 3.1,-2.66c0.74,-0.41 1.81,-1.12 2.18,-1.45c0.14,-0.11 0.33,-0.23 0.43,-0.24c0.1,-0.01 0.78,-0.37 1.52,-0.77c2.13,-1.18 4.15,-1.96 6.07,-2.36c0.57,-0.11 1.42,-0.34 1.91,-0.48c1.34,-0.43 5.11,-0.73 10.01,-0.8l4.41,-0.04l0.97,-1.02c0.53,-0.57 1.1,-1.28 1.27,-1.58c0.17,-0.3 0.36,-0.54 0.41,-0.54c0.04,0 0.27,-0.27 0.48,-0.58l0.38,-0.58l-0.41,-0.46c-0.87,-0.94 -1.12,-2.65 -0.48,-3.23c0.44,-0.41 0.34,-0.73 -0.26,-0.81c-0.97,-0.14 -1.49,-1.02 -1.52,-2.56c-0.01,-0.9 0.04,-1.17 0.38,-1.86c0.23,-0.46 0.57,-1 0.77,-1.21c0.2,-0.21 0.36,-0.41 0.36,-0.44c0,-0.04 -0.21,-0.16 -0.46,-0.26c-0.92,-0.4 -1.76,-1.54 -1.75,-2.38c0.03,-1.46 0.06,-1.56 0.64,-2.15c0.31,-0.31 0.57,-0.6 0.57,-0.63c0,-0.03 -0.3,-0.2 -0.65,-0.38c-0.36,-0.17 -0.77,-0.48 -0.91,-0.68c-0.38,-0.55 -0.63,-1.71 -0.5,-2.36c0.07,-0.3 0.1,-0.61 0.09,-0.68c-0.01,-0.06 0.14,-0.33 0.33,-0.58l0.37,-0.47l-0.64,-0.38c-0.9,-0.51 -1.37,-1.48 -1.38,-2.76c-0.01,-0.61 0.06,-1.1 0.21,-1.39c0.3,-0.58 0.3,-0.61 -0.04,-0.61c-0.38,0 -1.25,-0.46 -1.74,-0.91c-0.65,-0.63 -0.71,-1.85 -0.11,-2.62l0.3,-0.37l-0.68,-0.2c-1.21,-0.34 -1.68,-0.98 -1.62,-2.16c0.03,-0.65 -0.03,-0.84 -0.26,-1.07c-0.38,-0.33 -0.37,-0.51 0.01,-0.84c0.28,-0.24 0.41,-0.26 1.59,-0.11c1.15,0.14 1.49,0.26 3.16,1.1c1.32,0.67 2.12,1.18 2.77,1.78c0.5,0.46 0.95,0.81 1,0.77c0.06,-0.03 0.37,0.27 0.71,0.65c0.34,0.4 0.98,1.11 1.42,1.58c0.44,0.48 0.9,1.04 1,1.25c0.11,0.2 0.53,0.94 0.94,1.62c0.4,0.68 0.78,1.39 0.84,1.56c0.06,0.17 0.34,0.82 0.64,1.45c0.51,1.1 0.74,1.78 1.12,3.48c0.1,0.43 0.26,1.04 0.36,1.35c0.09,0.31 0.28,1.05 0.43,1.64c0.14,0.58 0.3,1.1 0.36,1.14c0.06,0.04 0.16,0.33 0.24,0.64c0.57,2.19 0.85,2.97 1.49,4.22c0.51,1.01 1.04,1.76 1.78,2.56c1.1,1.19 2.28,2.25 2.53,2.25c0.07,0 0.34,0.17 0.57,0.37c0.68,0.6 2.18,1.27 3.7,1.66c1.41,0.37 4.11,0.74 4.34,0.6c0.06,-0.04 0,-0.31 -0.14,-0.61c-0.13,-0.28 -0.33,-0.78 -0.43,-1.1c-0.1,-0.31 -0.27,-0.75 -0.36,-1c-0.31,-0.75 -0.64,-1.83 -0.7,-2.35c-0.04,-0.27 -0.17,-0.91 -0.3,-1.42c-0.13,-0.51 -0.33,-1.28 -0.44,-1.71c-0.1,-0.43 -0.2,-1.04 -0.21,-1.35c0,-0.31 -0.11,-1.55 -0.23,-2.74c-0.11,-1.19 -0.17,-2.29 -0.11,-2.43c0.04,-0.14 0.1,-1.07 0.14,-2.05c0.04,-1.02 0.18,-2.33 0.36,-3.09c0.16,-0.7 0.36,-1.74 0.43,-2.29c0.09,-0.55 0.4,-1.65 0.71,-2.45c0.31,-0.78 0.57,-1.51 0.57,-1.59c0,-0.09 0.24,-0.67 0.55,-1.28c0.3,-0.63 0.6,-1.29 0.65,-1.49c0.1,-0.33 0.9,-1.92 1.21,-2.42c0.07,-0.11 0.38,-0.65 0.7,-1.21c0.31,-0.54 0.77,-1.21 1,-1.48c0.23,-0.27 0.5,-0.65 0.6,-0.85c0.26,-0.5 0.81,-1.21 1.68,-2.15c0.4,-0.43 0.73,-0.84 0.73,-0.9c0,-0.11 2.2,-2.46 2.77,-2.96c2.03,-1.79 3.21,-2.74 3.58,-2.93c0.26,-0.11 0.61,-0.36 0.8,-0.53c0.71,-0.65 4.21,-2.55 5.01,-2.7c0.47,-0.1 2.26,-0.68 2.42,-0.8c0.44,-0.33 3.29,-0.64 5.69,-0.63c2.1,0.01 4.89,0.67 6.84,1.61c0.81,0.4 1.54,0.73 1.61,0.73c0.07,0 0.23,0.09 0.33,0.18c0.2,0.18 2.33,1.54 2.62,1.66c0.21,0.09 2.06,1.72 2.83,2.5c0.31,0.31 0.85,0.97 1.21,1.45c0.34,0.48 0.68,0.88 0.73,0.88c0.06,0 0.43,0.65 0.84,1.46c0.41,0.8 0.82,1.55 0.92,1.66c0.24,0.31 0.64,1.38 0.64,1.75c0,0.18 0.06,0.38 0.13,0.47c0.18,0.18 0.6,1.83 0.65,2.62c0.03,0.36 0.16,1.38 0.28,2.28c0.13,0.91 0.2,1.95 0.16,2.35c-0.06,0.4 -0.13,1.45 -0.17,2.35c-0.03,0.9 -0.18,2.15 -0.34,2.77c-0.14,0.63 -0.34,1.58 -0.43,2.13c-0.09,0.54 -0.21,1.05 -0.27,1.14c-0.14,0.17 -0.31,0.82 -0.4,1.46c-0.06,0.48 -0.57,1.98 -0.75,2.23c-0.14,0.18 -0.95,2.3 -1.08,2.8c-0.04,0.23 -0.13,0.4 -0.18,0.4c-0.06,0 -0.28,0.4 -0.5,0.9c-0.57,1.29 -1.56,3.23 -1.65,3.23c-0.04,0 -0.21,0.3 -0.4,0.68c-0.17,0.37 -0.71,1.18 -1.18,1.81c-0.47,0.63 -0.98,1.38 -1.14,1.66c-0.14,0.28 -0.36,0.58 -0.47,0.64c-0.1,0.06 -0.6,0.6 -1.1,1.18c-1.25,1.45 -3.17,3.3 -4.55,4.34c-0.4,0.31 -0.97,0.77 -1.24,1.02c-0.26,0.26 -0.81,0.64 -1.21,0.88c-0.41,0.23 -0.94,0.6 -1.19,0.81c-0.58,0.54 -3.87,2.57 -4.59,2.86c-0.65,0.26 -0.65,0.26 -0.36,1.91c0.28,1.52 1.12,3.13 2.16,4.18c0.51,0.5 3.44,1.89 4.31,2.03c1.29,0.23 4.22,0.11 5.05,-0.18c0.4,-0.13 0.74,-0.3 0.78,-0.36c0.04,-0.06 0.81,-0.43 1.71,-0.84c0.9,-0.41 1.66,-0.81 1.71,-0.87c0.04,-0.06 0.65,-0.36 1.35,-0.64c0.71,-0.3 1.69,-0.74 2.2,-1c0.51,-0.26 1.18,-0.54 1.49,-0.64c0.31,-0.09 0.77,-0.23 1,-0.31c1.93,-0.67 4.91,-0.88 6.47,-0.48c0.5,0.13 0.95,0.3 1,0.37c0.04,0.06 0.27,0.17 0.5,0.23c0.54,0.13 1.81,0.75 1.99,0.98c0.07,0.1 0.6,0.51 1.14,0.91c1.01,0.75 1.18,0.95 2.2,2.5c0.65,0.98 0.71,1.39 0.23,1.71c-0.27,0.18 -0.46,0.2 -0.85,0.09c-0.5,-0.13 -0.51,-0.13 -0.51,0.27c0,0.8 -0.23,1.14 -0.75,1.14c-0.41,0 -0.55,-0.1 -0.9,-0.58c-0.34,-0.5 -0.43,-0.55 -0.55,-0.36c-0.24,0.33 -0.94,0.54 -1.44,0.46c-0.51,-0.1 -1,-0.57 -1.12,-1.11c-0.13,-0.48 -0.21,-0.5 -0.64,-0.04c-0.4,0.41 -1.68,0.92 -2.32,0.92c-0.7,-0.01 -1.56,-0.37 -1.85,-0.78c-0.34,-0.46 -0.46,-0.46 -0.65,0.04c-0.16,0.37 -1.22,1.58 -1.42,1.61c-0.04,0 -0.21,0.04 -0.37,0.09c-0.16,0.04 -0.81,0.1 -1.45,0.14c-1.17,0.07 -1.18,0.07 -1.18,0.46c-0.03,0.91 -0.95,1.88 -2.09,2.19c-0.47,0.11 -0.61,0.23 -0.61,0.46c-0.01,0.7 -1,1.62 -2.06,1.93c-1.37,0.4 -0.55,1.12 1.74,1.55c0.37,0.07 1.25,0.28 1.95,0.48c0.7,0.2 1.31,0.33 1.37,0.3c0.11,-0.07 2.03,0.43 2.49,0.64c0.43,0.2 1.78,0.57 2.32,0.65c0.26,0.03 0.74,0.18 1.07,0.33c0.34,0.16 0.8,0.31 1.02,0.37c0.7,0.14 2.55,0.81 2.77,1c0.11,0.09 0.68,0.37 1.25,0.63c0.58,0.24 1.62,0.8 2.33,1.22c0.71,0.43 1.34,0.78 1.39,0.78c0.06,0 0.43,0.3 0.82,0.68c0.38,0.37 1.02,0.97 1.39,1.32c0.38,0.36 0.84,0.9 1,1.21c0.17,0.3 0.57,1.02 0.9,1.61c0.31,0.58 0.58,1.11 0.58,1.19c0,0.21 0.44,1.69 0.63,2.08c0.33,0.71 0.13,5.75 -0.27,6.86c-0.13,0.34 -0.3,0.91 -0.37,1.25c-0.13,0.61 -0.84,2.02 -1.72,3.36c-0.88,1.35 -3,2.96 -3.6,2.72c-0.53,-0.2 -0.51,-1.38 0.01,-2.15c0.27,-0.38 0.26,-0.5 -0.13,-0.5c-0.74,0 -1.29,-0.75 -1.46,-1.95c-0.13,-1.01 0.43,-2.03 1.32,-2.49c0.33,-0.17 0.61,-0.34 0.61,-0.4c0,-0.04 -0.57,-0.36 -1.27,-0.68c-0.91,-0.43 -1.39,-0.75 -1.71,-1.15c-0.82,-1.04 -1.1,-2.43 -0.64,-3.31c0.21,-0.41 0.21,-0.44 -0.03,-0.33c-0.16,0.06 -0.7,0.14 -1.21,0.18c-0.74,0.04 -1.08,0 -1.65,-0.26c-1.15,-0.5 -1.39,-0.84 -1.39,-2.01l0,-1l-0.43,0.07c-1.69,0.3 -3.14,0.26 -3.51,-0.1c-0.1,-0.1 -0.38,-0.33 -0.64,-0.5c-0.24,-0.17 -0.57,-0.57 -0.7,-0.88l-0.24,-0.55l-0.41,0.4c-0.23,0.23 -0.68,0.53 -1.01,0.67c-0.33,0.14 -0.63,0.3 -0.67,0.36c-0.17,0.21 -0.94,0.27 -1.75,0.11c-1.45,-0.27 -1.85,-0.57 -3,-2.32c-0.16,-0.24 -0.27,-0.17 -1.31,0.87c-0.77,0.77 -1.32,1.19 -1.69,1.32c-0.31,0.1 -0.7,0.27 -0.85,0.37c-1.18,0.82 -3.47,-1.17 -3.48,-3.02c0,-0.31 -0.04,-0.63 -0.1,-0.67c-0.06,-0.06 -0.34,0.16 -0.64,0.48c-0.3,0.31 -0.54,0.54 -0.54,0.5c0,-0.06 -0.18,0 -0.43,0.13c-0.48,0.24 -2.01,0.28 -2.43,0.06c-0.51,-0.27 -1.27,-1.18 -1.49,-1.83l-0.24,-0.64l-1.21,0c-0.85,0 -1.24,-0.06 -1.28,-0.18c-0.03,-0.09 -0.11,-0.14 -0.17,-0.1c-0.07,0.04 -0.36,-0.11 -0.63,-0.36c-0.46,-0.41 -0.57,-0.44 -1.28,-0.38c-0.9,0.09 -2.65,0.63 -2.65,0.82c0,0.07 -0.11,0.13 -0.24,0.13c-0.71,0 -4.15,3 -3.98,3.47c0.04,0.11 0.13,0.44 0.18,0.71c0.04,0.28 0.14,0.51 0.21,0.51c0.07,0 0.13,0.09 0.13,0.18c0,0.4 0.95,2.52 1.56,3.44c0.36,0.55 0.73,1.17 0.84,1.38c0.11,0.21 0.58,0.77 1.04,1.21c0.46,0.46 0.82,0.88 0.82,0.94c0,0.16 1.41,1.83 1.74,2.06c0.14,0.1 0.26,0.26 0.26,0.33c0,0.14 1.54,2.42 1.72,2.55c0.06,0.04 0.37,0.58 0.7,1.21c0.33,0.63 0.65,1.17 0.73,1.21c0.18,0.11 1,2.12 1.07,2.6c0.03,0.24 0.1,0.47 0.17,0.51c0.07,0.04 0.17,0.24 0.23,0.44c0.18,0.65 0.65,4.18 0.65,4.91c0,1.34 -0.61,5.18 -0.85,5.33c-0.07,0.04 -0.16,0.3 -0.2,0.57c-0.13,0.85 -0.73,2.16 -1.49,3.3c-0.4,0.61 -0.73,1.15 -0.73,1.21c0,0.13 -2.7,2.83 -2.92,2.9c-0.21,0.09 -1.82,1.17 -2.05,1.38c-0.27,0.27 -1.82,1.02 -2.08,1.02c-0.11,0 -0.21,0.04 -0.21,0.11c0,0.13 -1.93,0.88 -2.43,0.94c-0.53,0.07 -2.32,0.57 -2.4,0.67c-0.27,0.34 -4.98,0.58 -4.98,0.27l-0.05,-0.02z"/>
  </g>
  <g id="svg_11" fill="#bc1449">
   <path id="svg_12" d="m55.08,118.58c0.78,-1.37 1.34,-3.94 1.18,-5.55c-0.17,-1.86 -0.73,-2.87 -3.38,-6.23c-3.58,-4.54 -5.11,-7.47 -5.73,-11.06c-0.91,-5.18 1.17,-11.21 5.73,-16.67c2.52,-3 7.44,-7.37 10.54,-9.3l0.63,-0.4l-0.3,0.41c-0.4,0.55 -1.61,3.02 -2.06,4.17c-1.08,2.74 -1.58,5.5 -1.49,8.38l0.04,1.95l-0.9,-0.75c-0.5,-0.41 -1.15,-0.87 -1.45,-0.98c-0.31,-0.13 -0.57,-0.27 -0.57,-0.33c0,-0.23 -1.56,-0.55 -2.7,-0.58l-1.22,-0.01l-0.16,0.63c-0.3,1.08 -1.39,2.08 -2.36,2.16c-0.26,0.03 -0.54,0.04 -0.64,0.06c-0.11,0.01 -0.06,0.2 0.18,0.55c0.27,0.41 0.38,0.81 0.44,1.64c0.07,0.78 0.06,1.1 -0.07,1.1c-0.09,0 -0.16,0.1 -0.16,0.21c0,0.26 -1.29,1.64 -1.54,1.64c-0.24,0 -0.21,0.24 0.06,0.34c0.11,0.04 0.34,0.37 0.5,0.74c0.37,0.84 0.27,1.48 -0.46,2.86c-0.31,0.58 -0.55,1.07 -0.55,1.1c0,0.03 0.26,0.11 0.55,0.2c0.63,0.2 1.58,1.15 1.58,1.59c0,0.16 0.07,0.28 0.16,0.28c0.27,0 0.09,1.59 -0.23,1.96c-0.16,0.17 -0.28,0.38 -0.28,0.47c0,0.09 -0.16,0.26 -0.34,0.4l-0.34,0.26l0.53,0.1c0.28,0.06 0.51,0.16 0.51,0.21c0,0.07 0.18,0.2 0.41,0.3c0.53,0.21 1.39,1.14 1.66,1.78c0.26,0.63 0.26,1.46 -0.01,2.1c-0.36,0.85 -0.3,1 0.36,0.88c1.48,-0.26 3.1,0.75 3.24,2.01c0.09,0.82 -0.04,1.27 -0.5,1.68c-0.28,0.27 -0.33,0.37 -0.17,0.41c0.11,0.04 0.61,0.21 1.12,0.37c0.51,0.17 1.01,0.31 1.11,0.33c0.31,0.03 1.24,1.02 1.29,1.39c0.14,0.94 0.06,1.41 -0.33,1.98c-0.23,0.33 -0.57,0.63 -0.74,0.67c-0.41,0.11 -0.43,0.21 -0.04,0.46c0.37,0.23 0.7,1.01 0.7,1.65c0,1.48 -1.29,2.55 -2.55,2.1c-0.36,-0.13 -0.44,-0.11 -0.44,0.06c0,0.1 -0.06,0.2 -0.14,0.2c-0.07,0 -0.14,0.1 -0.14,0.21c0,0.11 -0.13,0.27 -0.27,0.36c-0.54,0.28 -0.61,0.14 -0.26,-0.46l0,-0.03z"/>
   <path id="svg_13" d="m119.64,100.75c-0.43,-0.3 -0.71,-0.88 -0.82,-1.72c-0.13,-1.01 0.43,-2.03 1.32,-2.49c0.33,-0.17 0.61,-0.34 0.61,-0.4c0,-0.04 -0.57,-0.36 -1.27,-0.68c-0.91,-0.43 -1.39,-0.75 -1.71,-1.15c-0.82,-1.04 -1.1,-2.43 -0.64,-3.31c0.21,-0.41 0.21,-0.44 -0.03,-0.33c-0.16,0.06 -0.7,0.14 -1.21,0.18c-0.74,0.04 -1.08,0 -1.65,-0.26c-1.15,-0.5 -1.39,-0.84 -1.39,-2.01l0,-1l-0.43,0.07c-1.69,0.3 -3.14,0.26 -3.51,-0.1c-0.1,-0.1 -0.38,-0.33 -0.64,-0.5c-0.24,-0.17 -0.57,-0.57 -0.7,-0.88l-0.24,-0.55l-0.41,0.4c-0.23,0.23 -0.68,0.53 -1.01,0.67c-0.33,0.14 -0.63,0.3 -0.67,0.36c-0.17,0.21 -0.94,0.27 -1.75,0.11c-1.45,-0.27 -1.85,-0.57 -3,-2.32c-0.16,-0.24 -0.27,-0.17 -1.31,0.87c-0.77,0.77 -1.32,1.19 -1.69,1.32c-0.31,0.1 -0.7,0.27 -0.85,0.37c-1.18,0.82 -3.47,-1.17 -3.48,-3.02c0,-0.31 -0.04,-0.63 -0.1,-0.67c-0.06,-0.06 -0.34,0.16 -0.64,0.48c-0.3,0.31 -0.54,0.54 -0.54,0.5c0,-0.06 -0.18,0 -0.43,0.13c-0.48,0.24 -2.01,0.28 -2.43,0.06c-0.51,-0.27 -1.27,-1.18 -1.49,-1.83l-0.24,-0.64l-1.21,0c-0.85,0 -1.24,-0.06 -1.28,-0.18c-0.03,-0.09 -0.11,-0.14 -0.17,-0.1c-0.07,0.04 -0.36,-0.11 -0.63,-0.36c-0.46,-0.41 -0.57,-0.44 -1.28,-0.38c-0.9,0.09 -2.65,0.63 -2.65,0.82c0,0.07 -0.11,0.13 -0.24,0.13c-0.4,0 -1.91,1.08 -2.89,2.06c-0.63,0.64 -0.95,0.88 -1.07,0.77c-0.09,-0.09 -0.14,-1.01 -0.13,-2.38c0,-1.92 0.06,-2.45 0.37,-3.73c0.44,-1.76 0.88,-2.96 1.58,-4.34c0.63,-1.25 1.98,-3.24 2.16,-3.21c0.09,0 0.34,0.48 0.58,1.07c2.19,5.22 7.21,9.07 13.4,10.31c1.51,0.31 2.19,0.4 4.01,0.51c2.76,0.17 3.57,0.24 5.19,0.44c4.21,0.53 8.36,1.65 11.09,3.02c2.72,1.35 4.98,3.37 6.02,5.38c1.22,2.36 1.41,4.57 0.65,7.78c-0.2,0.81 -0.27,0.95 -0.54,0.95c-0.17,0 -0.46,-0.1 -0.63,-0.23l0.02,0.01z"/>
   <path id="svg_14" d="m12.5,97.14c-0.26,-0.51 -0.54,-1.02 -0.63,-1.17c-0.51,-0.82 -2.16,-4.18 -2.57,-5.25c-0.91,-2.36 -1.24,-4.05 -1.25,-6.39c0,-1.69 0.06,-2.3 0.33,-3.41c1.05,-4.24 2.62,-7.25 4.95,-9.54c2.32,-2.28 5.16,-3.74 9.02,-4.66c2.39,-0.55 6.31,-0.98 12.29,-1.29c1.49,-0.07 4.01,-0.2 5.62,-0.28c4.86,-0.26 8.58,-0.68 10.07,-1.15c0.74,-0.24 0.68,-0.07 -0.14,0.46c-3.17,1.99 -6.68,5.19 -8.9,8.09c-0.51,0.67 -0.87,1.08 -0.81,0.92c0.06,-0.16 0.14,-1.07 0.18,-2.02c0.06,-1.62 0.04,-1.78 -0.3,-2.49c-0.61,-1.34 -1.15,-1.64 -1.78,-1.02c-0.11,0.11 -0.48,0.2 -0.9,0.2c-0.58,0 -0.78,-0.07 -1.02,-0.34l-0.31,-0.34l-0.64,0.46c-1.21,0.88 -2.23,1.02 -3.2,0.44c-0.34,-0.18 -0.64,-0.48 -0.68,-0.64c-0.1,-0.38 -0.28,-0.36 -0.55,0.11c-0.61,1.02 -2.32,2.02 -3.47,2.02c-0.91,0 -2.53,-0.77 -3.17,-1.49c-0.36,-0.41 -0.44,-0.46 -0.5,-0.24c-0.13,0.4 -1.24,1.42 -1.79,1.64c-0.55,0.23 -2.9,0.28 -3.29,0.09c-0.2,-0.1 -0.28,0.03 -0.48,0.7c-0.34,1.08 -1.02,2.4 -1.32,2.53c-0.82,0.36 -2.02,0.43 -2.56,0.14l-0.41,-0.21l-0.1,0.8c-0.17,1.41 -1.51,3.2 -2.82,3.77c-0.38,0.16 -0.68,0.3 -0.68,0.31c0,0 0.09,0.47 0.2,1.02c0.31,1.69 0.01,2.89 -1.21,4.72c-0.23,0.34 -0.41,0.67 -0.41,0.74c0,0.07 0.2,0.33 0.43,0.57c0.24,0.24 0.6,0.77 0.8,1.18c0.33,0.64 0.38,0.92 0.4,2.16c0,0.78 -0.03,1.59 -0.09,1.79c-0.1,0.33 -0.04,0.43 0.5,0.77c0.91,0.61 1.92,1.74 2.09,2.32c0.2,0.74 0.17,1.01 -0.18,1.74l-0.31,0.64l0.34,0.67c0.34,0.7 0.34,1.1 -0.03,1.61c-0.2,0.26 -0.24,0.21 -0.68,-0.64l-0.04,-0.04z"/>
   <path id="svg_15" d="m100.27,74.14c-0.11,-0.04 -0.74,-0.27 -1.38,-0.5c-1.08,-0.38 -1.49,-0.68 -0.98,-0.68c0.53,0 2.76,-0.95 3.75,-1.59c0.6,-0.4 1.83,-1.45 2.74,-2.35c2.4,-2.36 3.61,-3.16 6.1,-3.95c1,-0.33 1.55,-0.4 3.13,-0.47c2.33,-0.07 3.56,0.18 5.73,1.21c1.25,0.6 1.38,0.7 1.38,1.05c0,0.21 -0.06,0.55 -0.14,0.75c-0.11,0.3 -0.23,0.37 -0.61,0.37c-0.41,0 -0.55,-0.1 -0.9,-0.58c-0.34,-0.5 -0.43,-0.55 -0.55,-0.36c-0.24,0.33 -0.94,0.54 -1.44,0.46c-0.51,-0.1 -1,-0.57 -1.12,-1.11c-0.13,-0.48 -0.21,-0.5 -0.64,-0.04c-0.4,0.41 -1.68,0.92 -2.32,0.92c-0.7,-0.01 -1.56,-0.37 -1.85,-0.78c-0.34,-0.46 -0.46,-0.46 -0.65,0.04c-0.16,0.37 -1.22,1.58 -1.42,1.61c-0.04,0 -0.21,0.04 -0.37,0.09c-0.16,0.04 -0.81,0.1 -1.45,0.14c-1.17,0.07 -1.18,0.07 -1.18,0.46c-0.03,0.91 -0.95,1.88 -2.09,2.19c-0.47,0.11 -0.61,0.23 -0.61,0.46c-0.01,0.7 -1,1.62 -2.06,1.93c-0.51,0.16 -0.64,0.26 -0.64,0.51c0,0.34 -0.06,0.37 -0.43,0.23l0,-0.01z"/>
   <path id="svg_16" d="m39.51,54.66c0.48,-0.53 1.02,-1.19 1.19,-1.49c0.17,-0.3 0.36,-0.54 0.41,-0.54c0.04,0 0.27,-0.27 0.48,-0.58l0.38,-0.58l-0.41,-0.46c-0.87,-0.94 -1.12,-2.65 -0.48,-3.23c0.44,-0.41 0.34,-0.73 -0.26,-0.81c-0.97,-0.14 -1.49,-1.02 -1.52,-2.56c-0.01,-0.9 0.04,-1.17 0.38,-1.86c0.23,-0.46 0.57,-1 0.77,-1.21c0.2,-0.21 0.36,-0.41 0.36,-0.44c0,-0.04 -0.21,-0.16 -0.46,-0.26c-0.92,-0.4 -1.76,-1.54 -1.75,-2.38c0.03,-1.46 0.06,-1.56 0.64,-2.15c0.31,-0.31 0.57,-0.6 0.57,-0.63c0,-0.03 -0.3,-0.2 -0.65,-0.38c-0.36,-0.17 -0.77,-0.48 -0.91,-0.68c-0.38,-0.55 -0.63,-1.71 -0.5,-2.36c0.07,-0.3 0.1,-0.61 0.09,-0.68c-0.01,-0.06 0.14,-0.33 0.33,-0.58l0.37,-0.47l-0.64,-0.38c-0.9,-0.51 -1.37,-1.48 -1.38,-2.76c-0.01,-0.61 0.06,-1.1 0.21,-1.39c0.3,-0.58 0.3,-0.61 -0.04,-0.61c-0.38,0 -1.25,-0.46 -1.74,-0.91c-0.65,-0.63 -0.71,-1.85 -0.11,-2.62l0.3,-0.37l-0.68,-0.2c-1.18,-0.34 -1.78,-1.11 -1.62,-2.13l0.09,-0.61l1,0.91c2.09,1.92 4.15,4.58 5.33,6.93c1.15,2.3 1.34,3.26 1.64,8.31c0.26,4.39 0.51,6.61 0.98,8.55c0.9,3.6 2.12,5.93 4.28,8.12c1.04,1.05 3.56,2.9 3.97,2.9c0.54,0.01 -0.53,0.3 -2.12,0.55c-2.72,0.44 -7.89,1.01 -9.17,1.01c-0.13,0 0.17,-0.41 0.68,-0.95l-0.01,-0.02z"/>
  </g>
  <g id="svg_17" fill="#7c3a21">
   <path id="svg_18" d="m68.44,125.91c-0.4,-0.55 -0.41,-1.51 -0.06,-2.1c0.26,-0.41 0.7,-0.7 1.68,-1.08c0.4,-0.16 0.44,-0.23 0.33,-0.53c-0.17,-0.44 -0.17,-1.31 0,-1.31c0.07,0 0.17,-0.13 0.23,-0.27c0.13,-0.41 0.71,-0.73 1.51,-0.82l0.73,-0.09l-0.1,-0.48c-0.13,-0.74 0.28,-2.01 0.85,-2.52c0.75,-0.71 0.91,-0.81 1.21,-0.77c0.14,0.03 0.27,-0.01 0.27,-0.1c-0.01,-0.07 -0.07,-0.13 -0.13,-0.11c-0.21,0.06 -0.98,-0.94 -1.12,-1.45c-0.2,-0.74 0.14,-1.79 0.85,-2.56l0.55,-0.6l-0.38,-0.09c-0.5,-0.1 -1.29,-0.87 -1.61,-1.55c-0.24,-0.54 -0.28,-1.76 -0.09,-2.38c0.11,-0.33 0.1,-0.33 -0.6,-0.23c-0.87,0.11 -1.49,-0.13 -2.2,-0.85c-0.74,-0.75 -0.84,-1.72 -0.31,-2.94c0.09,-0.2 0.03,-0.26 -0.23,-0.26c-0.67,-0.01 -2.45,-0.55 -2.76,-0.85c-0.53,-0.5 -0.7,-1.49 -0.44,-2.47l0.2,-0.81l-0.65,0.03c-2.16,0.09 -3.81,-2.23 -2.89,-4.04l0.27,-0.53l-0.54,0c-0.84,0 -1.29,-0.74 -1,-1.62c0.13,-0.41 0.8,-1.07 0.91,-0.91c0.65,0.91 2.1,2.7 4.92,6.09c3.97,4.78 5.42,6.61 6.67,8.5c2.99,4.47 3.31,7.81 1.19,11.86c-0.95,1.81 -2.25,3.44 -4.74,6l-2.22,2.26l-0.31,-0.43l0.01,0.01z"/>
   <path id="svg_19" d="m55.08,118.58c0.78,-1.37 1.34,-3.94 1.18,-5.55c-0.17,-1.86 -0.73,-2.87 -3.38,-6.23c-3.58,-4.54 -5.11,-7.47 -5.73,-11.06c-0.6,-3.41 0.11,-7.32 2.03,-11.14l0.81,-1.59l0.92,-0.47c0.94,-0.47 2.22,-0.87 2.38,-0.73c0.13,0.14 -0.26,1.08 -0.61,1.52c-0.47,0.55 -1.25,1.02 -1.81,1.07c-0.26,0.03 -0.54,0.04 -0.64,0.06c-0.11,0.01 -0.06,0.2 0.18,0.55c0.27,0.41 0.38,0.81 0.44,1.64c0.07,0.78 0.06,1.1 -0.07,1.1c-0.09,0 -0.16,0.1 -0.16,0.21c0,0.26 -1.29,1.64 -1.54,1.64c-0.24,0 -0.21,0.24 0.06,0.34c0.11,0.04 0.34,0.37 0.5,0.74c0.37,0.84 0.27,1.48 -0.46,2.86c-0.31,0.58 -0.55,1.07 -0.55,1.1c0,0.03 0.26,0.11 0.55,0.2c0.63,0.2 1.58,1.15 1.58,1.59c0,0.16 0.07,0.28 0.16,0.28c0.27,0 0.09,1.59 -0.23,1.96c-0.16,0.17 -0.28,0.38 -0.28,0.47c0,0.09 -0.16,0.26 -0.34,0.4l-0.34,0.26l0.53,0.1c0.28,0.06 0.51,0.16 0.51,0.21c0,0.07 0.18,0.2 0.41,0.3c0.53,0.21 1.39,1.14 1.66,1.78c0.26,0.63 0.26,1.46 -0.01,2.1c-0.36,0.85 -0.3,1 0.36,0.88c1.48,-0.26 3.1,0.75 3.24,2.01c0.09,0.82 -0.04,1.27 -0.5,1.68c-0.28,0.27 -0.33,0.37 -0.17,0.41c0.11,0.04 0.61,0.21 1.12,0.37c0.51,0.17 1.01,0.31 1.11,0.33c0.31,0.03 1.24,1.02 1.29,1.39c0.14,0.94 0.06,1.41 -0.33,1.98c-0.23,0.33 -0.57,0.63 -0.74,0.67c-0.41,0.11 -0.43,0.21 -0.04,0.46c0.37,0.23 0.7,1.01 0.7,1.65c0,1.48 -1.29,2.55 -2.55,2.1c-0.36,-0.13 -0.44,-0.11 -0.44,0.06c0,0.1 -0.06,0.2 -0.14,0.2c-0.07,0 -0.14,0.1 -0.14,0.21c0,0.11 -0.13,0.27 -0.27,0.36c-0.54,0.28 -0.61,0.14 -0.26,-0.46l0.01,-0.01z"/>
   <path id="svg_20" d="m119.64,100.75c-0.43,-0.3 -0.71,-0.88 -0.82,-1.72c-0.13,-1.01 0.43,-2.03 1.32,-2.49c0.33,-0.17 0.61,-0.34 0.61,-0.4c0,-0.04 -0.57,-0.36 -1.27,-0.68c-0.91,-0.43 -1.39,-0.75 -1.71,-1.15c-0.82,-1.04 -1.1,-2.43 -0.64,-3.31c0.21,-0.41 0.21,-0.44 -0.03,-0.33c-0.16,0.06 -0.7,0.14 -1.21,0.18c-0.74,0.04 -1.08,0 -1.65,-0.26c-1.15,-0.5 -1.39,-0.84 -1.39,-2.01l0,-1l-0.43,0.07c-1.69,0.3 -3.14,0.26 -3.51,-0.1c-0.1,-0.1 -0.38,-0.33 -0.64,-0.5c-0.24,-0.17 -0.57,-0.57 -0.7,-0.88l-0.24,-0.55l-0.41,0.4c-0.23,0.23 -0.68,0.53 -1.01,0.67c-0.33,0.14 -0.63,0.3 -0.67,0.36c-0.17,0.21 -0.94,0.27 -1.75,0.11c-1.45,-0.27 -1.85,-0.57 -3,-2.32c-0.16,-0.24 -0.27,-0.17 -1.31,0.87c-0.77,0.77 -1.32,1.19 -1.69,1.32c-0.31,0.1 -0.7,0.27 -0.85,0.37c-1.18,0.82 -3.47,-1.17 -3.48,-3.02c0,-0.31 -0.04,-0.63 -0.1,-0.67c-0.06,-0.06 -0.34,0.16 -0.64,0.48c-0.3,0.31 -0.54,0.54 -0.54,0.5c0,-0.06 -0.18,0 -0.43,0.13c-0.48,0.24 -2.01,0.28 -2.43,0.06c-0.51,-0.27 -1.27,-1.18 -1.49,-1.83l-0.24,-0.64l-1.19,0c-0.65,0 -1.24,-0.06 -1.29,-0.14c-0.06,-0.07 -0.2,-0.16 -0.31,-0.18c-0.27,-0.06 -0.85,-0.6 -0.85,-0.78c0,-0.09 0.78,-0.11 2.1,-0.06c2.18,0.09 3.6,0.34 5.63,1.01c1.91,0.63 3.93,0.98 6.49,1.15c2.76,0.17 3.57,0.24 5.19,0.44c4.21,0.53 8.36,1.65 11.09,3.02c2.72,1.35 4.98,3.37 6.02,5.38c1.22,2.36 1.41,4.57 0.65,7.78c-0.2,0.81 -0.27,0.95 -0.54,0.95c-0.17,0 -0.46,-0.1 -0.63,-0.23l-0.01,0z"/>
   <path id="svg_21" d="m12.5,97.14c-0.26,-0.51 -0.54,-1.02 -0.63,-1.17c-0.51,-0.82 -2.16,-4.18 -2.57,-5.25c-0.91,-2.36 -1.24,-4.05 -1.25,-6.39c0,-1.69 0.06,-2.3 0.33,-3.41c1.05,-4.24 2.62,-7.25 4.95,-9.54c4,-3.93 9.07,-5.39 20.45,-5.9c2.01,-0.09 2.19,-0.07 2.83,0.21c1.41,0.61 3.03,2.01 2.35,2.01c-0.09,0 -0.24,0.1 -0.36,0.21c-0.14,0.13 -0.48,0.21 -0.92,0.21c-0.58,0 -0.78,-0.07 -1.02,-0.34l-0.31,-0.34l-0.64,0.46c-1.21,0.88 -2.23,1.02 -3.2,0.44c-0.34,-0.18 -0.64,-0.48 -0.68,-0.64c-0.1,-0.38 -0.28,-0.36 -0.55,0.11c-0.61,1.02 -2.32,2.02 -3.47,2.02c-0.91,0 -2.53,-0.77 -3.17,-1.49c-0.36,-0.41 -0.44,-0.46 -0.5,-0.24c-0.13,0.4 -1.24,1.42 -1.79,1.64c-0.55,0.23 -2.9,0.28 -3.29,0.09c-0.2,-0.1 -0.28,0.03 -0.48,0.7c-0.34,1.08 -1.02,2.4 -1.32,2.53c-0.82,0.36 -2.02,0.43 -2.56,0.14l-0.41,-0.21l-0.1,0.8c-0.17,1.41 -1.51,3.2 -2.82,3.77c-0.38,0.16 -0.68,0.3 -0.68,0.31c0,0 0.09,0.47 0.2,1.02c0.31,1.69 0.01,2.89 -1.21,4.72c-0.23,0.34 -0.41,0.67 -0.41,0.74c0,0.07 0.2,0.33 0.43,0.57c0.24,0.24 0.6,0.77 0.8,1.18c0.33,0.64 0.38,0.92 0.4,2.16c0,0.78 -0.03,1.59 -0.09,1.79c-0.1,0.33 -0.04,0.43 0.5,0.77c0.91,0.61 1.92,1.74 2.09,2.32c0.2,0.74 0.17,1.01 -0.18,1.74l-0.31,0.64l0.34,0.67c0.34,0.7 0.34,1.1 -0.03,1.61c-0.2,0.26 -0.24,0.21 -0.68,-0.64l-0.04,-0.02z"/>
   <path id="svg_22" d="m100.79,73.22c0.28,-1.41 0.34,-1.51 1.17,-2.05c0.44,-0.3 1.54,-1.27 2.45,-2.15c2.4,-2.36 3.61,-3.16 6.1,-3.95c1,-0.33 1.55,-0.4 3.13,-0.47c2.33,-0.07 3.56,0.18 5.73,1.21c1.25,0.6 1.38,0.7 1.38,1.05c0,0.21 -0.06,0.55 -0.14,0.75c-0.11,0.3 -0.23,0.37 -0.61,0.37c-0.41,0 -0.55,-0.1 -0.9,-0.58c-0.34,-0.5 -0.43,-0.55 -0.55,-0.36c-0.24,0.33 -0.94,0.54 -1.44,0.46c-0.51,-0.1 -1,-0.57 -1.12,-1.11c-0.13,-0.48 -0.21,-0.5 -0.64,-0.04c-0.4,0.41 -1.68,0.92 -2.32,0.92c-0.7,-0.01 -1.56,-0.37 -1.85,-0.78c-0.34,-0.46 -0.46,-0.46 -0.65,0.04c-0.16,0.37 -1.22,1.58 -1.42,1.61c-0.04,0 -0.21,0.04 -0.37,0.09c-0.16,0.04 -0.81,0.1 -1.45,0.14c-1.17,0.07 -1.18,0.07 -1.18,0.46c-0.03,0.91 -0.95,1.88 -2.09,2.19c-0.47,0.11 -0.61,0.23 -0.61,0.46c-0.01,0.63 -0.77,1.42 -1.76,1.83c-0.75,0.31 -0.92,0.3 -0.84,-0.09l-0.02,0z"/>
   <path id="svg_23" d="m41.53,50.96c-0.48,-0.53 -0.9,-1.75 -0.81,-2.39c0.04,-0.28 0.2,-0.64 0.37,-0.8c0.44,-0.41 0.34,-0.73 -0.26,-0.81c-0.97,-0.14 -1.49,-1.02 -1.52,-2.56c-0.01,-0.9 0.04,-1.17 0.38,-1.86c0.23,-0.46 0.57,-1 0.77,-1.21c0.2,-0.21 0.36,-0.41 0.36,-0.44c0,-0.04 -0.21,-0.16 -0.46,-0.26c-0.92,-0.4 -1.76,-1.54 -1.75,-2.38c0.03,-1.46 0.06,-1.56 0.64,-2.15c0.31,-0.31 0.57,-0.6 0.57,-0.63c0,-0.03 -0.3,-0.2 -0.65,-0.38c-0.36,-0.17 -0.77,-0.48 -0.91,-0.68c-0.38,-0.55 -0.63,-1.71 -0.5,-2.36c0.07,-0.3 0.1,-0.61 0.09,-0.68c-0.01,-0.06 0.14,-0.33 0.33,-0.58l0.37,-0.47l-0.64,-0.38c-0.9,-0.51 -1.37,-1.48 -1.38,-2.76c-0.01,-0.61 0.06,-1.1 0.21,-1.39c0.3,-0.58 0.3,-0.61 -0.04,-0.61c-0.38,0 -1.25,-0.46 -1.74,-0.91c-0.65,-0.63 -0.71,-1.85 -0.11,-2.62l0.3,-0.37l-0.68,-0.2c-1.18,-0.34 -1.78,-1.11 -1.62,-2.13l0.09,-0.61l1,0.91c2.09,1.92 4.15,4.58 5.33,6.93c1.15,2.3 1.34,3.26 1.64,8.31c0.13,2.05 0.28,4.3 0.37,4.99c0.28,2.57 0.92,5.15 1.72,6.95c0.41,0.95 0.43,1.02 0.26,1.74c-0.1,0.41 -0.44,1.31 -0.77,1.98l-0.58,1.24l-0.36,-0.41l-0.02,-0.02z"/>
  </g>
  <g id="svg_24" fill="#1d1d1b">
   <path id="svg_25" d="m80.36,49.37c-0.21,-0.4 -0.17,-1.24 0.07,-1.72c0.23,-0.46 0.87,-1 1.15,-1c0.63,0 0.98,1.15 0.61,1.89c-0.51,0.98 -1.51,1.44 -1.83,0.82l0,0.01z"/>
   <path id="svg_26" d="m70.26,46.51c-0.37,-0.37 -0.4,-1.62 -0.04,-2.13c0.55,-0.8 1.01,-0.91 1.45,-0.34c0.53,0.65 0.28,2.03 -0.43,2.53c-0.44,0.3 -0.64,0.28 -0.98,-0.06z"/>
  </g>
 </g>
</svg> 
